<svg width="35" height="35" viewBox="0 0 35 35" fill="none" xmlns="http://www.w3.org/2000/svg">
<g clip-path="url(#clip0_1_4195)">
<path d="M17.3523 2.44374C17.1183 2.19354 16.7744 2.07699 16.4363 2.13291C16.0982 2.18876 15.8103 2.40976 15.6691 2.72196L6.41669 22.8116C6.00216 22.7031 5.57505 22.627 5.12695 22.627C2.30009 22.627 0 24.9271 0 27.7539C0 30.5808 2.30009 32.8809 5.12695 32.8809C7.95382 32.8809 10.2539 30.5808 10.2539 27.7539C10.2539 26.9104 10.0296 26.1257 9.66711 25.4232L18.0219 7.07939C18.812 5.49913 18.4897 3.66026 17.3523 2.44374ZM5.12695 30.8301C3.43068 30.8301 2.05078 29.4502 2.05078 27.7539C2.05078 26.0577 3.43068 24.6778 5.12695 24.6778C6.82322 24.6778 8.20312 26.0577 8.20312 27.7539C8.20312 29.4502 6.82322 30.8301 5.12695 30.8301Z" fill="#fff"/>
<path d="M17.4316 22.627C16.9835 22.627 16.5564 22.7031 16.1419 22.8116L14.6172 19.501L12.406 24.3568L12.8916 25.423C12.529 26.1256 12.3047 26.9105 12.3047 27.7539C12.3047 30.5808 14.6048 32.8809 17.4316 32.8809C20.2585 32.8809 22.5586 30.5808 22.5586 27.7539C22.5586 24.9271 20.2585 22.627 17.4316 22.627ZM17.4316 30.8301C15.7354 30.8301 14.3555 29.4502 14.3555 27.7539C14.3555 26.0577 15.7354 24.6778 17.4316 24.6778C19.1279 24.6778 20.5078 26.0577 20.5078 27.7539C20.5078 29.4502 19.1279 30.8301 17.4316 30.8301Z" fill="#fff"/>
<path d="M31.9238 2.11914C31.0219 2.11914 30.6949 2.11914 30.5901 2.11914C30.5579 2.11914 30.5465 2.11914 30.5459 2.11914C30.3547 2.11914 29.4269 2.11914 25.6348 2.11914C25.068 2.11914 24.6094 2.57776 24.6094 3.14453C24.6094 3.7113 25.068 4.16992 25.6348 4.16992H28.8477V6.2207H25.6348C25.068 6.2207 24.6094 6.67933 24.6094 7.24609C24.6094 7.81286 25.068 8.27148 25.6348 8.27148H28.8477V10.3223H25.6348C25.068 10.3223 24.6094 10.7809 24.6094 11.3477C24.6094 11.9144 25.068 12.373 25.6348 12.373H28.8477V14.4238H25.6348C25.068 14.4238 24.6094 14.8825 24.6094 15.4492C24.6094 16.016 25.068 16.4746 25.6348 16.4746H28.8477V18.5254H25.6348C25.068 18.5254 24.6094 18.984 24.6094 19.5508C24.6094 20.1175 25.068 20.5762 25.6348 20.5762H28.8477V22.627H25.6348C25.068 22.627 24.6094 23.0856 24.6094 23.6523C24.6094 24.2191 25.068 24.6777 25.6348 24.6777H28.8477V26.7285H25.6348C25.068 26.7285 24.6094 27.1871 24.6094 27.7539C24.6094 28.3207 25.068 28.7793 25.6348 28.7793H28.8477V30.8301H25.6348C25.068 30.8301 24.6094 31.2887 24.6094 31.8555C24.6094 32.4222 25.068 32.8809 25.6348 32.8809C29.421 32.8809 30.3526 32.8809 30.5458 32.8809C30.5797 32.8809 30.5909 32.8809 30.5907 32.8809C30.6965 32.8809 31.0244 32.8809 31.9238 32.8809C33.62 32.8809 34.9999 31.501 34.9999 29.8047V5.19531C34.9999 3.49904 33.62 2.11914 31.9238 2.11914Z" fill="#fff"/>
<path d="M6.88967 2.7219C6.74844 2.40977 6.46058 2.18869 6.12247 2.13291C5.78437 2.07699 5.44045 2.19348 5.20646 2.44374C4.06902 3.66027 3.74671 5.49913 4.53681 7.0794L7.95157 14.5768L10.1506 9.80236L6.88967 2.7219Z" fill="#fff"/>
</g>
</svg>
