<svg width="25" height="25" viewBox="0 0 25 25" fill="none" xmlns="http://www.w3.org/2000/svg">
<path fill-rule="evenodd" clip-rule="evenodd" d="M12.746 25C12.6633 25 12.5805 25 12.4971 24.9996C10.5375 25.0043 8.72688 24.9546 6.96602 24.8474C5.35164 24.7491 3.87802 24.1912 2.70424 23.2341C1.57166 22.3106 0.798225 21.0618 0.405502 19.523C0.0637055 18.1833 0.0455856 16.8682 0.0282288 15.5961C0.0156402 14.6835 0.00267029 13.602 0 12.5022C0.00267029 11.3979 0.0156402 10.3164 0.0282288 9.40374C0.0455856 8.13192 0.0637055 6.8168 0.405502 5.47689C0.798225 3.93804 1.57166 2.68929 2.70424 1.76575C3.87802 0.808646 5.35164 0.250746 6.96621 0.152518C8.72707 0.0455155 10.5381 -0.00445704 12.5019 0.000311334C14.4621 -0.00388484 16.2722 0.0455155 18.033 0.152518C19.6474 0.250746 21.121 0.808646 22.2948 1.76575C23.4276 2.68929 24.2008 3.93804 24.5935 5.47689C24.9353 6.81661 24.9535 8.13192 24.9708 9.40374C24.9834 10.3164 24.9966 11.3979 24.999 12.4977V12.5022C24.9966 13.602 24.9834 14.6835 24.9708 15.5961L24.9708 15.5964V15.5964C24.9535 16.8681 24.9355 18.1832 24.5935 19.523C24.2008 21.0618 23.4276 22.3106 22.2948 23.2341C21.121 24.1912 19.6474 24.7491 18.033 24.8474C16.3467 24.95 14.6145 25 12.746 25ZM20.8333 5.83291C20.8333 6.75338 20.0871 7.49957 19.1667 7.49957C18.2462 7.49957 17.5 6.75338 17.5 5.83291C17.5 4.91243 18.2462 4.16624 19.1667 4.16624C20.0871 4.16624 20.8333 4.91243 20.8333 5.83291ZM16.3333 12.4996C16.3333 14.6167 14.6171 16.3329 12.5 16.3329C10.3829 16.3329 8.66666 14.6167 8.66666 12.4996C8.66666 10.3825 10.3829 8.66624 12.5 8.66624C14.6171 8.66624 16.3333 10.3825 16.3333 12.4996ZM18.3333 12.4996C18.3333 15.7212 15.7217 18.3329 12.5 18.3329C9.27833 18.3329 6.66666 15.7212 6.66666 12.4996C6.66666 9.27791 9.27833 6.66624 12.5 6.66624C15.7217 6.66624 18.3333 9.27791 18.3333 12.4996Z" fill="#D1293C"/>
</svg>
