<svg width="14" height="12" viewBox="0 0 14 12" fill="none" xmlns="http://www.w3.org/2000/svg">
<path d="M6.99998 9.44159L7.30921 9.08711C9.45091 6.63016 9.45091 2.92514 7.30921 0.468223L6.99998 0.121094L6.69075 0.468223C4.54905 2.92517 4.54905 6.63019 6.69075 9.08711L6.99998 9.44159Z" fill="white"/>
<path d="M11.5034 8.98682C9.7761 10.1473 8.35538 10.1911 7 10.2874C7.08307 10.2933 4.54256 10.3643 2.49504 8.98717C0.987055 9.28812 0 9.73653 0 10.2382C0 11.1443 3.14913 11.8788 7 11.8788C10.8509 11.8788 14 11.1443 14 10.2382C14 9.73634 13.0123 9.28771 11.5034 8.98682Z" fill="white"/>
<path d="M12.0648 3.1469C12.1214 5.45848 11.0809 7.70308 9.24512 9.1488C11.8286 8.39066 13.7777 6.08058 13.9679 3.30782L14 2.83838L13.5305 2.87043C13.0272 2.90507 12.5312 3.00354 12.0648 3.1469Z" fill="white"/>
<path d="M4.75522 9.14888C2.91971 7.70346 1.87912 5.45862 1.93547 3.14698C1.46893 3.00359 0.972809 2.90504 0.469438 2.8704L0 2.83838L0.0320469 3.30782C0.222305 6.08066 2.17156 8.39086 4.75522 9.14888Z" fill="white"/>
<path d="M8.72559 8.51601C10.872 6.83557 11.8089 3.92718 10.916 1.26797L10.7661 0.821777L10.3444 1.03126C9.89839 1.25296 9.49228 1.52569 9.11988 1.83175C10.0478 3.97542 9.9201 6.47559 8.72559 8.51601Z" fill="white"/>
<path d="M5.2749 8.51566C4.07998 6.47518 3.95242 3.9749 4.88016 1.8312C4.50785 1.52514 4.10177 1.25247 3.65579 1.03077L3.23402 0.821289L3.0842 1.26748C2.19175 3.92653 3.12858 6.83516 5.2749 8.51566Z" fill="white"/>
</svg>
