<svg width="35" height="35" viewBox="0 0 35 35" fill="none" xmlns="http://www.w3.org/2000/svg">
<g clip-path="url(#clip0_1_4216)">
<path d="M33.5566 15.6802C33.5133 17.2805 33.2731 18.9762 32.8395 20.7296C32.7562 21.0674 32.6656 21.405 32.5688 21.7418C33.9752 21.3183 34.9999 20.0136 34.9999 18.4692C34.9999 17.3173 34.4296 16.2994 33.5566 15.6802Z" fill="url(#paint0_linear_1_4216)"/>
<path d="M1.44334 15.6802C0.570322 16.2994 0 17.3173 0 18.4692C0 20.0137 1.02471 21.3184 2.4312 21.7419C2.33427 21.4043 2.24342 21.0661 2.15995 20.7275C1.72676 18.9758 1.48661 17.2805 1.44334 15.6802Z" fill="url(#paint1_linear_1_4216)"/>
<path d="M26.4074 3.46689C24.1724 1.47449 21.4061 0.283398 18.5254 0.0537109V3.08818C18.5254 3.65447 18.0663 4.11357 17.5 4.11357C16.9337 4.11357 16.4746 3.65447 16.4746 3.08818V0.0537109C13.5939 0.283398 10.8276 1.47449 8.59264 3.46689C6.14626 5.64783 4.44199 8.68565 3.79442 12.0178C3.58996 13.0521 3.48633 14.1089 3.48633 15.1585C3.48633 15.8537 3.52939 16.5725 3.61484 17.3109C4.61966 18.4818 5.82709 19.4036 7.27357 20.1065C7.78292 20.3539 7.99524 20.9675 7.74771 21.4769C7.57032 21.8419 7.20494 22.0544 6.82473 22.0544C6.67434 22.0544 6.52169 22.0211 6.37731 21.9509C5.62522 21.5855 4.92133 21.1605 4.26528 20.6802C5.19921 24.1963 6.90963 27.6458 8.99726 30.2052C11.269 32.9903 13.8351 34.6114 16.4746 34.946V31.9358C16.4746 31.3695 16.9337 30.9104 17.5 30.9104C18.0663 30.9104 18.5254 31.3695 18.5254 31.9358V34.946C21.1649 34.6114 23.731 32.9903 26.0028 30.2052C28.0906 27.6457 29.8011 24.196 30.7347 20.6802C30.0787 21.1605 29.3748 21.5855 28.6227 21.9509C28.4784 22.021 28.3256 22.0542 28.1753 22.0542C27.795 22.0542 27.4296 21.8418 27.2522 21.4768C27.0048 20.9674 27.217 20.3538 27.7264 20.1063C29.1729 19.4035 30.3804 18.4818 31.3852 17.3108C31.4707 16.5724 31.5137 15.8535 31.5137 15.1584C31.5137 14.1086 31.41 13.0519 31.2063 12.021C30.5579 8.68565 28.8537 5.64783 26.4074 3.46689ZM16.4746 7.18975C16.4746 6.62346 16.9337 6.16436 17.5 6.16436C18.0663 6.16436 18.5254 6.62346 18.5254 7.18975V8.89873C18.5254 9.46502 18.0663 9.92412 17.5 9.92412C16.9337 9.92412 16.4746 9.46502 16.4746 8.89873V7.18975ZM16.4746 13.0003C16.4746 12.434 16.9337 11.9749 17.5 11.9749C18.0663 11.9749 18.5254 12.434 18.5254 13.0003V14.7093C18.5254 15.2756 18.0663 15.7347 17.5 15.7347C16.9337 15.7347 16.4746 15.2756 16.4746 14.7093V13.0003ZM16.4746 18.8108C16.4746 18.2446 16.9337 17.7854 17.5 17.7854C18.0663 17.7854 18.5254 18.2446 18.5254 18.8108V22.9124C18.5254 23.4787 18.0663 23.9378 17.5 23.9378C16.9337 23.9378 16.4746 23.4787 16.4746 22.9124V18.8108ZM13.1299 22.7442C13.0447 23.2441 12.6109 23.5974 12.1203 23.5974C12.0631 23.5974 12.0051 23.5926 11.9467 23.5826C11.3416 23.4794 10.7596 23.3652 10.2169 23.2432C9.66431 23.1189 9.31718 22.5703 9.44146 22.0178C9.56566 21.4652 10.1144 21.1183 10.6668 21.2423C11.1748 21.3566 11.7214 21.4638 12.2914 21.561C12.8497 21.6562 13.2251 22.1859 13.1299 22.7442ZM10.8525 16.9633C9.87273 16.9633 8.89294 16.5904 8.14707 15.8445C7.74662 15.4441 7.74662 14.7948 8.14707 14.3943C8.54745 13.994 9.19673 13.994 9.59718 14.3943C10.2894 15.0865 11.4157 15.0865 12.1079 14.3943C12.5083 13.994 13.1576 13.994 13.5581 14.3943C13.9585 14.7947 13.9585 15.444 13.5581 15.8445C12.8121 16.5904 11.8323 16.9633 10.8525 16.9633ZM21.0306 27.3288C20.0875 28.2719 18.8337 28.7913 17.5 28.7913C16.1663 28.7913 14.9124 28.2719 13.9694 27.3288C13.569 26.9284 13.569 26.2792 13.9694 25.8787C14.3698 25.4783 15.019 25.4782 15.4195 25.8787C15.9752 26.4345 16.7141 26.7405 17.5 26.7405C18.2859 26.7405 19.0248 26.4344 19.5806 25.8787C19.981 25.4783 20.6302 25.4783 21.0307 25.8787C21.4311 26.2792 21.4311 26.9284 21.0306 27.3288ZM24.7831 23.2433C24.2404 23.3653 23.6584 23.4795 23.0533 23.5827C22.995 23.5926 22.937 23.5974 22.8797 23.5974C22.3891 23.5974 21.9555 23.2442 21.8701 22.7443C21.7749 22.1861 22.1504 21.6563 22.7086 21.5611C23.2785 21.4639 23.8251 21.3567 24.3332 21.2425C24.886 21.1184 25.4343 21.4654 25.5586 22.0179C25.6829 22.5704 25.3356 23.119 24.7831 23.2433ZM26.8529 15.8445C26.107 16.5903 25.1272 16.9633 24.1475 16.9633C23.1677 16.9633 22.1879 16.5903 21.442 15.8445C21.0416 15.4441 21.0416 14.7948 21.442 14.3943C21.8424 13.994 22.4917 13.994 22.8921 14.3943C23.5845 15.0866 24.7106 15.0865 25.4028 14.3943C25.8032 13.994 26.4525 13.994 26.8529 14.3943C27.2534 14.7948 27.2534 15.4441 26.8529 15.8445Z" fill="url(#paint2_linear_1_4216)"/>
</g>
<defs>
<linearGradient id="paint0_linear_1_4216" x1="33.7844" y1="15.6802" x2="33.7844" y2="21.7418" gradientUnits="userSpaceOnUse">
<stop stop-color="#EF5061"/>
<stop offset="1" stop-color="#D73042"/>
</linearGradient>
<linearGradient id="paint1_linear_1_4216" x1="1.2156" y1="15.6802" x2="1.2156" y2="21.7419" gradientUnits="userSpaceOnUse">
<stop stop-color="#EF5061"/>
<stop offset="1" stop-color="#D73042"/>
</linearGradient>
<linearGradient id="paint2_linear_1_4216" x1="17.5" y1="0.0537109" x2="17.5" y2="34.946" gradientUnits="userSpaceOnUse">
<stop stop-color="#EF5061"/>
<stop offset="1" stop-color="#D73042"/>
</linearGradient>
<clipPath id="clip0_1_4216">
<rect width="35" height="35" fill="white"/>
</clipPath>
</defs>
</svg>
