<svg width="25" height="25" viewBox="0 0 25 25" fill="none" xmlns="http://www.w3.org/2000/svg">
<g opacity="1" clip-path="url(#clip0_1_5363)">
<path d="M24.6131 2.48356C24.3075 2.1101 23.8501 1.9043 23.325 1.9043C23.0393 1.9043 22.737 1.96457 22.4261 2.08321L1.26395 10.1614C0.140908 10.5899 -0.0103443 11.2331 -0.000616892 11.5785C0.00911054 11.9238 0.196602 12.5574 1.34215 12.9217C1.34902 12.924 1.35588 12.9259 1.36275 12.928L4.33057 13.7771L18.7844 6.39284C19.1445 6.2086 19.5859 6.35165 19.7699 6.71194C19.9145 6.99499 19.8565 7.32763 19.6505 7.5466L19.6511 7.54717L11.6147 16.0861L11.3854 17.0152L14.2552 19.3261L18.232 22.5284C18.2355 22.5311 18.2389 22.5339 18.2425 22.5366C18.6801 22.8761 19.1581 23.0554 19.6248 23.0556C20.5369 23.0556 21.263 22.3806 21.4745 21.3361L24.9419 4.21504C25.0809 3.52802 24.9642 2.9129 24.6131 2.48356Z" fill="#fff"/>
<path d="M10.239 15.5489C10.2681 15.4304 10.3269 15.3175 10.4163 15.2224L15.6896 9.61914L5.90431 14.6183L8.12618 20.9726C8.25283 21.3346 8.44128 21.6429 8.67435 21.8842L10.2386 15.5487L10.239 15.5489Z" fill="#fff"/>
<path d="M10.0381 22.4724C10.5663 22.468 11.0853 22.2452 11.54 21.8266L13.1656 20.3297L10.9981 18.5845L10.0381 22.4724Z" fill="#fff"/>
</g>
<defs>
<clipPath id="clip0_1_5363">
<rect width="25" height="25" fill="white" transform="translate(-0.000976562)"/>
</clipPath>
</defs>
</svg>
