<svg width="25" height="25" viewBox="0 0 25 25" fill="none" xmlns="http://www.w3.org/2000/svg">
<path fill-rule="evenodd" clip-rule="evenodd" d="M12.4864 0C15.8115 0.00133515 18.9358 1.2907 21.2843 3.63045C23.6654 6.003 24.9759 9.11522 24.975 12.3938C24.9735 15.6956 23.6675 18.8055 21.2972 21.1506C18.9329 23.49 15.8037 24.7784 12.4866 24.7784H12.4817C10.5331 24.7776 8.60117 24.3176 6.86967 23.4449L0.033165 25L1.52013 18.2413C0.524117 16.4022 -0.000595093 14.3875 -0.000976562 12.3903V12.388V12.3842C0.0020752 9.08451 1.30746 5.97057 3.67563 3.6274C6.0396 1.28822 9.16879 0 12.4864 0ZM8.54106 6.92688H9.08847C9.29199 6.93527 9.51725 6.95129 9.73125 7.42546H9.73106C9.87862 7.75249 10.1254 8.3645 10.3204 8.84805C10.4611 9.19702 10.5748 9.47908 10.6048 9.5388C10.6762 9.68109 10.7238 9.84741 10.6287 10.0374C10.609 10.0765 10.5917 10.1126 10.5754 10.1467C10.5122 10.2782 10.4633 10.3802 10.35 10.5123C10.2071 10.6784 10.0338 10.8528 9.90539 10.9802C9.76215 11.1223 9.61338 11.2764 9.77989 11.5612C9.94659 11.8461 10.536 12.8086 11.3853 13.5633C12.3027 14.3785 13.0924 14.7246 13.4905 14.8991C13.5659 14.9322 13.6273 14.959 13.6728 14.9818C13.9585 15.1243 14.1252 15.1004 14.2917 14.9103C14.4584 14.7203 15.0194 14.0619 15.2099 13.7773C15.4005 13.4922 15.5908 13.5397 15.8527 13.6345C16.1019 13.725 17.3819 14.3637 17.7513 14.5481C17.7701 14.5574 17.7865 14.5656 17.8003 14.5725C17.8561 14.6003 17.9084 14.6254 17.9568 14.6487C18.1558 14.7444 18.2904 14.8091 18.3479 14.9046C18.4192 15.0236 18.4192 15.5935 18.1812 16.2582C17.9431 16.9229 16.7768 17.5642 16.253 17.6115C16.2027 17.616 16.1527 17.6219 16.1012 17.6279C15.6173 17.6847 15.0063 17.7564 12.8253 16.8993C10.1417 15.8445 8.37242 13.2303 8.00718 12.6907C7.97728 12.6465 7.95678 12.6162 7.94597 12.6018L7.94266 12.5974C7.78823 12.3916 6.77963 11.0478 6.77963 9.65744C6.77963 8.34634 7.42614 7.65902 7.72364 7.34274C7.74399 7.32111 7.7627 7.30122 7.77946 7.28298C8.04115 6.99821 8.35052 6.92688 8.54106 6.92688Z" fill="#fff"/>
</svg>
